<svg width="43" height="43" viewBox="0 0 43 43" fill="none" xmlns="http://www.w3.org/2000/svg">
<g clip-path="url(#clip0_154_119)">
<path d="M40.1172 10.7078C38.1946 7.41398 35.5866 4.80603 32.2927 2.88348C28.9982 0.961029 25.4017 0 21.5006 0C17.5999 0 14.0024 0.961029 10.7085 2.88348C7.41437 4.80573 4.80642 7.41368 2.88377 10.7078C0.961029 14.0021 0 17.5996 0 21.5C0 25.4006 0.961323 28.9976 2.88348 32.2921C4.80603 35.5859 7.41398 38.1939 10.7081 40.1166C14.0024 42.039 17.5996 43.0001 21.5002 43.0001C25.4008 43.0001 28.9985 42.039 32.2926 40.1166C35.5865 38.1946 38.1944 35.5859 40.1168 32.2921C42.039 28.9979 42.9999 25.4004 42.9999 21.5C43 17.5993 42.039 14.0016 40.1172 10.7078ZM21.5003 3.13548C26.1286 3.13548 30.1693 4.66581 33.6219 7.72638L33.2719 8.21596C33.132 8.41227 32.7821 8.78977 32.2224 9.34996C31.6626 9.90965 31.0513 10.4419 30.3889 10.9457C29.7258 11.4497 28.8259 12.0235 27.687 12.6674C26.5485 13.3113 25.3354 13.8762 24.0475 14.3614C21.9014 10.4044 19.606 6.83977 17.1611 3.66723C18.6357 3.31266 20.082 3.13548 21.5003 3.13548ZM7.11128 10.1055C8.90283 7.84767 11.0861 6.11172 13.6619 4.89879C15.9761 7.97818 18.2528 11.5058 20.4925 15.4809C14.8189 16.974 9.16415 17.7206 3.52779 17.7203C4.12534 14.9023 5.31973 12.3638 7.11128 10.1055ZM4.36733 28.1214C3.54603 26.0218 3.13548 23.8145 3.13548 21.5C3.13548 21.2386 3.14509 21.0426 3.16352 20.9121C9.91995 20.9121 16.2003 20.0445 22.0045 18.3085C22.6019 19.4655 23.0965 20.5014 23.4884 21.4161C23.4128 21.4534 23.2924 21.4951 23.1243 21.5419C22.9558 21.5886 22.8348 21.621 22.7595 21.6399L21.7239 22.0038C21.0144 22.2652 20.0856 22.7132 18.9383 23.3474C17.7907 23.9826 16.5729 24.738 15.2851 25.6154C13.9972 26.4929 12.6674 27.6546 11.2958 29.1015C9.92407 30.5478 8.77164 32.1011 7.83845 33.762C6.34538 32.1011 5.18844 30.2203 4.36733 28.1214ZM21.5003 39.8649C17.133 39.8649 13.2324 38.465 9.79826 35.6657L10.2182 35.9738C10.8714 34.5364 11.8324 33.1552 13.1018 31.8304C14.371 30.5055 15.5934 29.4366 16.7691 28.6245C17.9449 27.8132 19.2232 27.0481 20.6045 26.3286C21.9855 25.6106 22.9275 25.1529 23.4319 24.9575C23.9359 24.7616 24.3372 24.6073 24.6358 24.4951L24.6915 24.467H24.7479C26.5763 29.2634 27.8834 33.9109 28.6669 38.4087C26.3527 39.3796 23.9642 39.8646 21.5003 39.8649ZM36.9543 31.4243C35.5731 33.5615 33.8463 35.3302 31.7753 36.7294C31.0095 32.437 29.8157 28.06 28.1916 23.5998C31.9056 23.0206 35.7221 23.2917 39.6414 24.4111C39.2307 26.9493 38.3348 29.2875 36.9543 31.4243ZM39.5851 21.2481C39.3985 21.2111 39.1649 21.1687 38.8851 21.1223C38.6052 21.076 38.2643 21.0197 37.8629 20.9544C37.4622 20.8891 37.0136 20.8286 36.5194 20.7725C36.0247 20.7165 35.4976 20.6653 34.9372 20.6186C34.3775 20.5718 33.7802 20.5348 33.1459 20.5066C32.5107 20.4787 31.8671 20.4646 31.2138 20.4646C30.5611 20.4646 29.8747 20.4835 29.1565 20.5206C28.4382 20.5574 27.7432 20.6234 27.0714 20.7166C27.015 20.6232 26.9452 20.4691 26.8613 20.2544C26.7774 20.0399 26.7162 19.8764 26.6801 19.7644C26.325 18.9805 25.9143 18.0939 25.4472 17.1051C26.7351 16.5821 27.9625 15.9805 29.1296 15.2991C30.2957 14.6177 31.2282 14.0116 31.9285 13.4797C32.6285 12.9473 33.291 12.3827 33.9161 11.7856C34.5416 11.1885 34.9469 10.7734 35.1342 10.54C35.3211 10.3063 35.4983 10.0778 35.666 9.85415L35.6942 9.82591C38.4189 13.148 39.8099 16.9738 39.8652 21.304L39.5851 21.2481Z" fill="white"/>
</g>
<defs>
<clipPath id="clip0_154_119">
<rect width="43" height="43" fill="white"/>
</clipPath>
</defs>
</svg>
