<svg width="43" height="43" viewBox="0 0 43 43" fill="none" xmlns="http://www.w3.org/2000/svg">
<g clip-path="url(#clip0_154_137)">
<path d="M17.6906 20.2099C18.5829 19.7611 19.2575 19.2611 19.7198 18.7209C20.5422 17.7479 20.9481 16.4578 20.9481 14.8586C20.9481 13.3025 20.5422 11.972 19.7306 10.8566C18.3759 9.03973 16.0833 8.10978 12.8419 8.0614H0V34.2747H11.9738C13.323 34.2747 14.5728 34.1592 15.7285 33.9226C16.8843 33.6834 17.8841 33.2453 18.7307 32.6057C19.4833 32.0493 20.1122 31.3586 20.6121 30.5442C21.4023 29.3132 21.7974 27.9183 21.7974 26.3648C21.7974 24.8597 21.4507 23.5776 20.7626 22.524C20.0665 21.4704 19.0452 20.6991 17.6906 20.2099ZM5.2975 12.6144H11.0815C12.3528 12.6144 13.401 12.7515 14.2234 13.0229C15.1749 13.418 15.6506 14.2217 15.6506 15.4473C15.6506 16.5465 15.2878 17.3152 14.5701 17.7479C13.8471 18.1807 12.9091 18.3984 11.7588 18.3984H5.2975V12.6144ZM14.4438 29.2648C13.8041 29.5739 12.9037 29.7271 11.7507 29.7271H5.2975V22.7364H11.8394C12.979 22.7444 13.866 22.8949 14.5003 23.1771C15.6291 23.6878 16.1908 24.6231 16.1908 25.9912C16.1908 27.6038 15.6103 28.6897 14.4438 29.2648Z" fill="black"/>
<path d="M38.8671 9.2843H27.4792V12.5472H38.8671V9.2843Z" fill="black"/>
<path d="M42.8235 22.1612C42.5869 20.6426 42.0655 19.3068 41.2538 18.1538C40.3642 16.8475 39.2353 15.8907 37.8619 15.286C36.4939 14.6785 34.9538 14.3748 33.239 14.3775C30.3605 14.3775 28.0222 15.2779 26.2133 17.0652C24.4099 18.8579 23.5068 21.4355 23.5068 24.7951C23.5068 28.3779 24.5039 30.9661 26.509 32.5546C28.506 34.1457 30.812 34.9386 33.4299 34.9386C36.5987 34.9386 39.0633 33.9952 40.8238 32.1138C41.9499 30.9258 42.5869 29.7567 42.7267 28.609H37.4803C37.1766 29.1761 36.8245 29.6196 36.4213 29.9421C35.6902 30.5334 34.7388 30.8291 33.5723 30.8291C32.4623 30.8291 31.5216 30.5845 30.7368 30.098C29.4413 29.3186 28.764 27.9532 28.678 26.01H42.9955C43.017 24.3355 42.9632 23.0481 42.8235 22.1612ZM28.807 22.6638C28.9951 21.4032 29.452 20.4034 30.1777 19.6643C30.9034 18.9278 31.9301 18.5569 33.2444 18.5542C34.4566 18.5542 35.4698 18.901 36.295 19.5971C37.1094 20.2986 37.569 21.3172 37.663 22.6638H28.807Z" fill="black"/>
</g>
<defs>
<clipPath id="clip0_154_137">
<rect width="43" height="43" fill="white"/>
</clipPath>
</defs>
</svg>
