<svg width="16" height="14" viewBox="0 0 16 14" fill="none" xmlns="http://www.w3.org/2000/svg">
<path d="M1.44721 2.10557C0.953235 1.85858 0.352562 2.05881 0.105573 2.55279C-0.141416 3.04676 0.0588079 3.64744 0.552786 3.89443L1.44721 2.10557ZM15.3162 10.9487C15.8402 10.774 16.1233 10.2077 15.9487 9.68377L13.1026 1.14562C12.928 0.621679 12.3617 0.338519 11.8377 0.513167C11.3138 0.687815 11.0306 1.25413 11.2053 1.77808L13.7351 9.36754L6.14562 11.8974C5.62168 12.072 5.33852 12.6383 5.51317 13.1623C5.68782 13.6862 6.25414 13.9694 6.77808 13.7947L15.3162 10.9487ZM0.552786 3.89443L14.5528 10.8944L15.4472 9.10557L1.44721 2.10557L0.552786 3.89443Z" fill="#EDBC5A"/>
</svg>
